%TF.GenerationSoftware,KiCad,Pcbnew,(6.0.4)*%
%TF.CreationDate,2023-07-07T20:02:52-04:00*%
%TF.ProjectId,Rotary Switch Board,526f7461-7279-4205-9377-697463682042,rev?*%
%TF.SameCoordinates,Original*%
%TF.FileFunction,Legend,Bot*%
%TF.FilePolarity,Positive*%
%FSLAX46Y46*%
G04 Gerber Fmt 4.6, Leading zero omitted, Abs format (unit mm)*
G04 Created by KiCad (PCBNEW (6.0.4)) date 2023-07-07 20:02:52*
%MOMM*%
%LPD*%
G01*
G04 APERTURE LIST*
%ADD10C,0.150000*%
%ADD11C,0.015000*%
%ADD12C,1.752600*%
G04 APERTURE END LIST*
D10*
X142858714Y-94813380D02*
X142953952Y-94765761D01*
X143001571Y-94718142D01*
X143049190Y-94622904D01*
X143049190Y-94337190D01*
X143001571Y-94241952D01*
X142953952Y-94194333D01*
X142858714Y-94146714D01*
X142715857Y-94146714D01*
X142620619Y-94194333D01*
X142573000Y-94241952D01*
X142525380Y-94337190D01*
X142525380Y-94622904D01*
X142573000Y-94718142D01*
X142620619Y-94765761D01*
X142715857Y-94813380D01*
X142858714Y-94813380D01*
X142096809Y-94146714D02*
X142096809Y-94813380D01*
X142096809Y-94241952D02*
X142049190Y-94194333D01*
X141953952Y-94146714D01*
X141811095Y-94146714D01*
X141715857Y-94194333D01*
X141668238Y-94289571D01*
X141668238Y-94813380D01*
X139906333Y-93861000D02*
X140001571Y-93813380D01*
X140144428Y-93813380D01*
X140287285Y-93861000D01*
X140382523Y-93956238D01*
X140430142Y-94051476D01*
X140477761Y-94241952D01*
X140477761Y-94384809D01*
X140430142Y-94575285D01*
X140382523Y-94670523D01*
X140287285Y-94765761D01*
X140144428Y-94813380D01*
X140049190Y-94813380D01*
X139906333Y-94765761D01*
X139858714Y-94718142D01*
X139858714Y-94384809D01*
X140049190Y-94384809D01*
X139430142Y-94813380D02*
X139430142Y-94146714D01*
X139430142Y-93813380D02*
X139477761Y-93861000D01*
X139430142Y-93908619D01*
X139382523Y-93861000D01*
X139430142Y-93813380D01*
X139430142Y-93908619D01*
X139096809Y-94146714D02*
X138715857Y-94146714D01*
X138953952Y-93813380D02*
X138953952Y-94670523D01*
X138906333Y-94765761D01*
X138811095Y-94813380D01*
X138715857Y-94813380D01*
X138382523Y-94813380D02*
X138382523Y-93813380D01*
X137953952Y-94813380D02*
X137953952Y-94289571D01*
X138001571Y-94194333D01*
X138096809Y-94146714D01*
X138239666Y-94146714D01*
X138334904Y-94194333D01*
X138382523Y-94241952D01*
X137049190Y-94146714D02*
X137049190Y-94813380D01*
X137477761Y-94146714D02*
X137477761Y-94670523D01*
X137430142Y-94765761D01*
X137334904Y-94813380D01*
X137192047Y-94813380D01*
X137096809Y-94765761D01*
X137049190Y-94718142D01*
X136573000Y-94813380D02*
X136573000Y-93813380D01*
X136573000Y-94194333D02*
X136477761Y-94146714D01*
X136287285Y-94146714D01*
X136192047Y-94194333D01*
X136144428Y-94241952D01*
X136096809Y-94337190D01*
X136096809Y-94622904D01*
X136144428Y-94718142D01*
X136192047Y-94765761D01*
X136287285Y-94813380D01*
X136477761Y-94813380D01*
X136573000Y-94765761D01*
X152404056Y-101757041D02*
X152269369Y-101689698D01*
X152202026Y-101689698D01*
X152101011Y-101723369D01*
X151999995Y-101824385D01*
X151966324Y-101925400D01*
X151966324Y-101992743D01*
X151999995Y-102093759D01*
X152269369Y-102363133D01*
X152976476Y-101656026D01*
X152740774Y-101420324D01*
X152639759Y-101386652D01*
X152572415Y-101386652D01*
X152471400Y-101420324D01*
X152404056Y-101487667D01*
X152370385Y-101588682D01*
X152370385Y-101656026D01*
X152404056Y-101757041D01*
X152639759Y-101992743D01*
X152101011Y-101251965D02*
X151461247Y-101555011D01*
X151764293Y-100915247D02*
X151461247Y-101555011D01*
X151360232Y-101790713D01*
X151360232Y-101858056D01*
X151393904Y-101959072D01*
X150484766Y-100578530D02*
X151191873Y-99871423D01*
X150080705Y-100174469D01*
X150787812Y-99467362D01*
X149743988Y-99837751D02*
X150215392Y-99366347D01*
X150451095Y-99130644D02*
X150451095Y-99197988D01*
X150383751Y-99197988D01*
X150383751Y-99130644D01*
X150451095Y-99130644D01*
X150383751Y-99197988D01*
X149407270Y-99501034D02*
X150114377Y-98793927D01*
X149845003Y-99063301D02*
X149811331Y-98962286D01*
X149676644Y-98827599D01*
X149575629Y-98793927D01*
X149508286Y-98793927D01*
X149407270Y-98827599D01*
X149205240Y-99029629D01*
X149171568Y-99130644D01*
X149171568Y-99197988D01*
X149205240Y-99299003D01*
X149339927Y-99433690D01*
X149440942Y-99467362D01*
X148767507Y-98861270D02*
X149474614Y-98154164D01*
X149205240Y-98423538D02*
X149171568Y-98322522D01*
X149036881Y-98187835D01*
X148935866Y-98154164D01*
X148868522Y-98154164D01*
X148767507Y-98187835D01*
X148565477Y-98389866D01*
X148531805Y-98490881D01*
X148531805Y-98558225D01*
X148565477Y-98659240D01*
X148700164Y-98793927D01*
X148801179Y-98827599D01*
X148026729Y-98120492D02*
X148127744Y-98154164D01*
X148228759Y-98120492D01*
X148834851Y-97514400D01*
X147521652Y-97548072D02*
X147555324Y-97649087D01*
X147690011Y-97783774D01*
X147791026Y-97817446D01*
X147892042Y-97783774D01*
X148161416Y-97514400D01*
X148195087Y-97413385D01*
X148161416Y-97312370D01*
X148026729Y-97177683D01*
X147925713Y-97144011D01*
X147824698Y-97177683D01*
X147757355Y-97245026D01*
X148026729Y-97649087D01*
X146848217Y-96941981D02*
X147555324Y-96234874D01*
X146881889Y-96908309D02*
X146915561Y-97009324D01*
X147050248Y-97144011D01*
X147151263Y-97177683D01*
X147218607Y-97177683D01*
X147319622Y-97144011D01*
X147521652Y-96941981D01*
X147555324Y-96840965D01*
X147555324Y-96773622D01*
X147521652Y-96672607D01*
X147386965Y-96537920D01*
X147285950Y-96504248D01*
X146511500Y-96605263D02*
X147218607Y-95898156D01*
X146949233Y-95628782D01*
X146848217Y-95595111D01*
X146780874Y-95595111D01*
X146679859Y-95628782D01*
X146578843Y-95729798D01*
X146545172Y-95830813D01*
X146545172Y-95898156D01*
X146578843Y-95999172D01*
X146848217Y-96268546D01*
X145703378Y-95797141D02*
X145804393Y-95830813D01*
X145871736Y-95830813D01*
X145972752Y-95797141D01*
X146174782Y-95595111D01*
X146208454Y-95494095D01*
X146208454Y-95426752D01*
X146174782Y-95325736D01*
X146073767Y-95224721D01*
X145972752Y-95191049D01*
X145905408Y-95191049D01*
X145804393Y-95224721D01*
X145602362Y-95426752D01*
X145568691Y-95527767D01*
X145568691Y-95595111D01*
X145602362Y-95696126D01*
X145703378Y-95797141D01*
X145737049Y-94888004D02*
X145467675Y-94618630D01*
X145871736Y-94551286D02*
X145265645Y-95157378D01*
X145164630Y-95191049D01*
X145063614Y-95157378D01*
X144996271Y-95090034D01*
X144827912Y-94854332D02*
X144726897Y-94820660D01*
X144592210Y-94685973D01*
X144558538Y-94584958D01*
X144592210Y-94483943D01*
X144625882Y-94450271D01*
X144726897Y-94416599D01*
X144827912Y-94450271D01*
X144928927Y-94551286D01*
X145029943Y-94584958D01*
X145130958Y-94551286D01*
X145164630Y-94517614D01*
X145198301Y-94416599D01*
X145164630Y-94315584D01*
X145063614Y-94214569D01*
X144962599Y-94180897D01*
X152582619Y-117267761D02*
X153058809Y-117601095D01*
X152582619Y-117839190D02*
X153582619Y-117839190D01*
X153582619Y-117458238D01*
X153535000Y-117363000D01*
X153487380Y-117315380D01*
X153392142Y-117267761D01*
X153249285Y-117267761D01*
X153154047Y-117315380D01*
X153106428Y-117363000D01*
X153058809Y-117458238D01*
X153058809Y-117839190D01*
X152582619Y-116696333D02*
X152630238Y-116791571D01*
X152677857Y-116839190D01*
X152773095Y-116886809D01*
X153058809Y-116886809D01*
X153154047Y-116839190D01*
X153201666Y-116791571D01*
X153249285Y-116696333D01*
X153249285Y-116553476D01*
X153201666Y-116458238D01*
X153154047Y-116410619D01*
X153058809Y-116363000D01*
X152773095Y-116363000D01*
X152677857Y-116410619D01*
X152630238Y-116458238D01*
X152582619Y-116553476D01*
X152582619Y-116696333D01*
X153249285Y-116077285D02*
X153249285Y-115696333D01*
X153582619Y-115934428D02*
X152725476Y-115934428D01*
X152630238Y-115886809D01*
X152582619Y-115791571D01*
X152582619Y-115696333D01*
X152582619Y-114934428D02*
X153106428Y-114934428D01*
X153201666Y-114982047D01*
X153249285Y-115077285D01*
X153249285Y-115267761D01*
X153201666Y-115363000D01*
X152630238Y-114934428D02*
X152582619Y-115029666D01*
X152582619Y-115267761D01*
X152630238Y-115363000D01*
X152725476Y-115410619D01*
X152820714Y-115410619D01*
X152915952Y-115363000D01*
X152963571Y-115267761D01*
X152963571Y-115029666D01*
X153011190Y-114934428D01*
X152582619Y-114458238D02*
X153249285Y-114458238D01*
X153058809Y-114458238D02*
X153154047Y-114410619D01*
X153201666Y-114363000D01*
X153249285Y-114267761D01*
X153249285Y-114172523D01*
X153249285Y-113934428D02*
X152582619Y-113696333D01*
X153249285Y-113458238D02*
X152582619Y-113696333D01*
X152344523Y-113791571D01*
X152296904Y-113839190D01*
X152249285Y-113934428D01*
X152630238Y-112363000D02*
X152582619Y-112220142D01*
X152582619Y-111982047D01*
X152630238Y-111886809D01*
X152677857Y-111839190D01*
X152773095Y-111791571D01*
X152868333Y-111791571D01*
X152963571Y-111839190D01*
X153011190Y-111886809D01*
X153058809Y-111982047D01*
X153106428Y-112172523D01*
X153154047Y-112267761D01*
X153201666Y-112315380D01*
X153296904Y-112363000D01*
X153392142Y-112363000D01*
X153487380Y-112315380D01*
X153535000Y-112267761D01*
X153582619Y-112172523D01*
X153582619Y-111934428D01*
X153535000Y-111791571D01*
X153249285Y-111458238D02*
X152582619Y-111267761D01*
X153058809Y-111077285D01*
X152582619Y-110886809D01*
X153249285Y-110696333D01*
X152582619Y-110315380D02*
X153249285Y-110315380D01*
X153582619Y-110315380D02*
X153535000Y-110363000D01*
X153487380Y-110315380D01*
X153535000Y-110267761D01*
X153582619Y-110315380D01*
X153487380Y-110315380D01*
X153249285Y-109982047D02*
X153249285Y-109601095D01*
X153582619Y-109839190D02*
X152725476Y-109839190D01*
X152630238Y-109791571D01*
X152582619Y-109696333D01*
X152582619Y-109601095D01*
X152630238Y-108839190D02*
X152582619Y-108934428D01*
X152582619Y-109124904D01*
X152630238Y-109220142D01*
X152677857Y-109267761D01*
X152773095Y-109315380D01*
X153058809Y-109315380D01*
X153154047Y-109267761D01*
X153201666Y-109220142D01*
X153249285Y-109124904D01*
X153249285Y-108934428D01*
X153201666Y-108839190D01*
X152582619Y-108410619D02*
X153582619Y-108410619D01*
X152582619Y-107982047D02*
X153106428Y-107982047D01*
X153201666Y-108029666D01*
X153249285Y-108124904D01*
X153249285Y-108267761D01*
X153201666Y-108363000D01*
X153154047Y-108410619D01*
X153106428Y-106410619D02*
X153058809Y-106267761D01*
X153011190Y-106220142D01*
X152915952Y-106172523D01*
X152773095Y-106172523D01*
X152677857Y-106220142D01*
X152630238Y-106267761D01*
X152582619Y-106363000D01*
X152582619Y-106743952D01*
X153582619Y-106743952D01*
X153582619Y-106410619D01*
X153535000Y-106315380D01*
X153487380Y-106267761D01*
X153392142Y-106220142D01*
X153296904Y-106220142D01*
X153201666Y-106267761D01*
X153154047Y-106315380D01*
X153106428Y-106410619D01*
X153106428Y-106743952D01*
X152582619Y-105601095D02*
X152630238Y-105696333D01*
X152677857Y-105743952D01*
X152773095Y-105791571D01*
X153058809Y-105791571D01*
X153154047Y-105743952D01*
X153201666Y-105696333D01*
X153249285Y-105601095D01*
X153249285Y-105458238D01*
X153201666Y-105363000D01*
X153154047Y-105315380D01*
X153058809Y-105267761D01*
X152773095Y-105267761D01*
X152677857Y-105315380D01*
X152630238Y-105363000D01*
X152582619Y-105458238D01*
X152582619Y-105601095D01*
X152582619Y-104410619D02*
X153106428Y-104410619D01*
X153201666Y-104458238D01*
X153249285Y-104553476D01*
X153249285Y-104743952D01*
X153201666Y-104839190D01*
X152630238Y-104410619D02*
X152582619Y-104505857D01*
X152582619Y-104743952D01*
X152630238Y-104839190D01*
X152725476Y-104886809D01*
X152820714Y-104886809D01*
X152915952Y-104839190D01*
X152963571Y-104743952D01*
X152963571Y-104505857D01*
X153011190Y-104410619D01*
X152582619Y-103934428D02*
X153249285Y-103934428D01*
X153058809Y-103934428D02*
X153154047Y-103886809D01*
X153201666Y-103839190D01*
X153249285Y-103743952D01*
X153249285Y-103648714D01*
X152582619Y-102886809D02*
X153582619Y-102886809D01*
X152630238Y-102886809D02*
X152582619Y-102982047D01*
X152582619Y-103172523D01*
X152630238Y-103267761D01*
X152677857Y-103315380D01*
X152773095Y-103363000D01*
X153058809Y-103363000D01*
X153154047Y-103315380D01*
X153201666Y-103267761D01*
X153249285Y-103172523D01*
X153249285Y-102982047D01*
X153201666Y-102886809D01*
X145182927Y-125770652D02*
X145250271Y-125635965D01*
X145418630Y-125467606D01*
X145519645Y-125433934D01*
X145586988Y-125433934D01*
X145688004Y-125467606D01*
X145755347Y-125534950D01*
X145789019Y-125635965D01*
X145789019Y-125703308D01*
X145755347Y-125804324D01*
X145654332Y-125972682D01*
X145620660Y-126073698D01*
X145620660Y-126141041D01*
X145654332Y-126242056D01*
X145721675Y-126309400D01*
X145822691Y-126343072D01*
X145890034Y-126343072D01*
X145991049Y-126309400D01*
X146159408Y-126141041D01*
X146226752Y-126006354D01*
X145856362Y-125029873D02*
X146327767Y-125501278D01*
X146563469Y-125736980D02*
X146496126Y-125736980D01*
X146496126Y-125669637D01*
X146563469Y-125669637D01*
X146563469Y-125736980D01*
X146496126Y-125669637D01*
X146664485Y-125164560D02*
X146193080Y-124693156D01*
X146597141Y-125097217D02*
X146664485Y-125097217D01*
X146765500Y-125063545D01*
X146866515Y-124962530D01*
X146900187Y-124861514D01*
X146866515Y-124760499D01*
X146496126Y-124390110D01*
X147607294Y-124221751D02*
X147034874Y-123649331D01*
X146933859Y-123615660D01*
X146866515Y-123615660D01*
X146765500Y-123649331D01*
X146664485Y-123750347D01*
X146630813Y-123851362D01*
X147169561Y-123784018D02*
X147068546Y-123817690D01*
X146933859Y-123952377D01*
X146900187Y-124053392D01*
X146900187Y-124120736D01*
X146933859Y-124221751D01*
X147135889Y-124423782D01*
X147236904Y-124457453D01*
X147304248Y-124457453D01*
X147405263Y-124423782D01*
X147539950Y-124289095D01*
X147573622Y-124188079D01*
X147573622Y-123312614D02*
X147539950Y-123413629D01*
X147573622Y-123514644D01*
X148179713Y-124120736D01*
X148146042Y-122807538D02*
X148045026Y-122841209D01*
X147910339Y-122975896D01*
X147876668Y-123076912D01*
X147910339Y-123177927D01*
X148179713Y-123447301D01*
X148280729Y-123480973D01*
X148381744Y-123447301D01*
X148516431Y-123312614D01*
X148550103Y-123211599D01*
X148516431Y-123110583D01*
X148449087Y-123043240D01*
X148045026Y-123312614D01*
X149829629Y-122470820D02*
X149964316Y-122336133D01*
X149997988Y-122235118D01*
X149997988Y-122100431D01*
X149896973Y-121932072D01*
X149661270Y-121696370D01*
X149492912Y-121595355D01*
X149358225Y-121595355D01*
X149257209Y-121629026D01*
X149122522Y-121763713D01*
X149088851Y-121864729D01*
X149088851Y-121999416D01*
X149189866Y-122167774D01*
X149425568Y-122403477D01*
X149593927Y-122504492D01*
X149728614Y-122504492D01*
X149829629Y-122470820D01*
X150503064Y-121325981D02*
X150031660Y-120854576D01*
X150200018Y-121629026D02*
X149829629Y-121258637D01*
X149795957Y-121157622D01*
X149829629Y-121056607D01*
X149930644Y-120955591D01*
X150031660Y-120921920D01*
X150099003Y-120921920D01*
X150738766Y-121090278D02*
X151008140Y-120820904D01*
X151075484Y-121224965D02*
X150469392Y-120618874D01*
X150435721Y-120517859D01*
X150469392Y-120416843D01*
X150536736Y-120349500D01*
X151243843Y-120585202D02*
X150536736Y-119878095D01*
X151210171Y-120551530D02*
X151311186Y-120517859D01*
X151445873Y-120383172D01*
X151479545Y-120282156D01*
X151479545Y-120214813D01*
X151445873Y-120113798D01*
X151243843Y-119911767D01*
X151142827Y-119878095D01*
X151075484Y-119878095D01*
X150974469Y-119911767D01*
X150839782Y-120046454D01*
X150806110Y-120147469D01*
X152186652Y-119642393D02*
X151715247Y-119170988D01*
X151883606Y-119945439D02*
X151513217Y-119575049D01*
X151479545Y-119474034D01*
X151513217Y-119373019D01*
X151614232Y-119272004D01*
X151715247Y-119238332D01*
X151782591Y-119238332D01*
X152422354Y-119406691D02*
X152691728Y-119137317D01*
X152759072Y-119541378D02*
X152152980Y-118935286D01*
X152119308Y-118834271D01*
X152152980Y-118733256D01*
X152220324Y-118665912D01*
D11*
%TO.C,SW1*%
X138971939Y-109506043D02*
X139077992Y-109559069D01*
X139210558Y-109691635D01*
X139237071Y-109771175D01*
X139237071Y-109824201D01*
X139210558Y-109903741D01*
X139157531Y-109956767D01*
X139077992Y-109983280D01*
X139024965Y-109983280D01*
X138945426Y-109956767D01*
X138812860Y-109877227D01*
X138733320Y-109850714D01*
X138680294Y-109850714D01*
X138600754Y-109877227D01*
X138547728Y-109930254D01*
X138521215Y-110009793D01*
X138521215Y-110062820D01*
X138547728Y-110142359D01*
X138680294Y-110274925D01*
X138786347Y-110327952D01*
X138945426Y-110540058D02*
X139634769Y-110115846D01*
X139343124Y-110619597D01*
X139846875Y-110327952D01*
X139422663Y-111017295D01*
X140483192Y-110964269D02*
X140165033Y-110646110D01*
X140324112Y-110805190D02*
X139767335Y-111361967D01*
X139793848Y-111229401D01*
X139793848Y-111123348D01*
X139767335Y-111043808D01*
%TD*%
D12*
%TO.C,J6*%
X125201447Y-104917525D03*
%TD*%
%TO.C,*%
X125995197Y-102536275D03*
%TD*%
%TO.C,*%
X124407697Y-107298775D03*
%TD*%
M02*
