%TF.GenerationSoftware,KiCad,Pcbnew,(6.0.4)*%
%TF.CreationDate,2023-07-07T19:50:39-04:00*%
%TF.ProjectId,Rotary Switch Board,526f7461-7279-4205-9377-697463682042,rev?*%
%TF.SameCoordinates,Original*%
%TF.FileFunction,Legend,Top*%
%TF.FilePolarity,Positive*%
%FSLAX46Y46*%
G04 Gerber Fmt 4.6, Leading zero omitted, Abs format (unit mm)*
G04 Created by KiCad (PCBNEW (6.0.4)) date 2023-07-07 19:50:39*
%MOMM*%
%LPD*%
G01*
G04 APERTURE LIST*
%ADD10C,0.150000*%
%ADD11C,0.015000*%
%ADD12C,0.120000*%
%ADD13C,0.250000*%
%ADD14C,1.752600*%
G04 APERTURE END LIST*
D10*
%TO.C,R1*%
X129161327Y-113307441D02*
X128685137Y-113640775D01*
X129161327Y-113878870D02*
X128161327Y-113878870D01*
X128161327Y-113497917D01*
X128208947Y-113402679D01*
X128256566Y-113355060D01*
X128351804Y-113307441D01*
X128494661Y-113307441D01*
X128589899Y-113355060D01*
X128637518Y-113402679D01*
X128685137Y-113497917D01*
X128685137Y-113878870D01*
X129161327Y-112355060D02*
X129161327Y-112926489D01*
X129161327Y-112640775D02*
X128161327Y-112640775D01*
X128304185Y-112736013D01*
X128399423Y-112831251D01*
X128447042Y-112926489D01*
%TO.C,R4*%
X139195280Y-98973155D02*
X138861947Y-98496965D01*
X138623851Y-98973155D02*
X138623851Y-97973155D01*
X139004804Y-97973155D01*
X139100042Y-98020775D01*
X139147661Y-98068394D01*
X139195280Y-98163632D01*
X139195280Y-98306489D01*
X139147661Y-98401727D01*
X139100042Y-98449346D01*
X139004804Y-98496965D01*
X138623851Y-98496965D01*
X140052423Y-98306489D02*
X140052423Y-98973155D01*
X139814327Y-97925536D02*
X139576232Y-98639822D01*
X140195280Y-98639822D01*
%TO.C,*%
%TO.C,C1*%
X133747986Y-116704437D02*
X133815329Y-116704437D01*
X133950016Y-116771781D01*
X134017360Y-116839125D01*
X134084703Y-116973812D01*
X134084703Y-117108499D01*
X134051032Y-117209514D01*
X133950016Y-117377873D01*
X133849001Y-117478888D01*
X133680642Y-117579903D01*
X133579627Y-117613575D01*
X133444940Y-117613575D01*
X133310253Y-117546231D01*
X133242909Y-117478888D01*
X133175566Y-117344201D01*
X133175566Y-117276857D01*
X133141894Y-115963659D02*
X133545955Y-116367720D01*
X133343925Y-116165689D02*
X132636818Y-116872796D01*
X132805177Y-116839125D01*
X132939864Y-116839125D01*
X133040879Y-116872796D01*
%TO.C,*%
%TO.C,R2*%
X127480327Y-110640441D02*
X127004137Y-110973775D01*
X127480327Y-111211870D02*
X126480327Y-111211870D01*
X126480327Y-110830917D01*
X126527947Y-110735679D01*
X126575566Y-110688060D01*
X126670804Y-110640441D01*
X126813661Y-110640441D01*
X126908899Y-110688060D01*
X126956518Y-110735679D01*
X127004137Y-110830917D01*
X127004137Y-111211870D01*
X126575566Y-110259489D02*
X126527947Y-110211870D01*
X126480327Y-110116632D01*
X126480327Y-109878536D01*
X126527947Y-109783298D01*
X126575566Y-109735679D01*
X126670804Y-109688060D01*
X126766042Y-109688060D01*
X126908899Y-109735679D01*
X127480327Y-110307108D01*
X127480327Y-109688060D01*
%TO.C,R3*%
X130840332Y-102314862D02*
X130267912Y-102213847D01*
X130436271Y-102718923D02*
X129729164Y-102011817D01*
X129998538Y-101742442D01*
X130099553Y-101708771D01*
X130166897Y-101708771D01*
X130267912Y-101742442D01*
X130368927Y-101843458D01*
X130402599Y-101944473D01*
X130402599Y-102011817D01*
X130368927Y-102112832D01*
X130099553Y-102382206D01*
X130368927Y-101372053D02*
X130806660Y-100934320D01*
X130840332Y-101439397D01*
X130941347Y-101338381D01*
X131042363Y-101304710D01*
X131109706Y-101304710D01*
X131210721Y-101338381D01*
X131379080Y-101506740D01*
X131412752Y-101607755D01*
X131412752Y-101675099D01*
X131379080Y-101776114D01*
X131177050Y-101978145D01*
X131076034Y-102011817D01*
X131008691Y-102011817D01*
%TO.C,R5*%
X152021327Y-110513441D02*
X151545137Y-110846775D01*
X152021327Y-111084870D02*
X151021327Y-111084870D01*
X151021327Y-110703917D01*
X151068947Y-110608679D01*
X151116566Y-110561060D01*
X151211804Y-110513441D01*
X151354661Y-110513441D01*
X151449899Y-110561060D01*
X151497518Y-110608679D01*
X151545137Y-110703917D01*
X151545137Y-111084870D01*
X151021327Y-109608679D02*
X151021327Y-110084870D01*
X151497518Y-110132489D01*
X151449899Y-110084870D01*
X151402280Y-109989632D01*
X151402280Y-109751536D01*
X151449899Y-109656298D01*
X151497518Y-109608679D01*
X151592756Y-109561060D01*
X151830851Y-109561060D01*
X151926089Y-109608679D01*
X151973708Y-109656298D01*
X152021327Y-109751536D01*
X152021327Y-109989632D01*
X151973708Y-110084870D01*
X151926089Y-110132489D01*
%TO.C,R7*%
X139195280Y-123514155D02*
X138861947Y-123037965D01*
X138623851Y-123514155D02*
X138623851Y-122514155D01*
X139004804Y-122514155D01*
X139100042Y-122561775D01*
X139147661Y-122609394D01*
X139195280Y-122704632D01*
X139195280Y-122847489D01*
X139147661Y-122942727D01*
X139100042Y-122990346D01*
X139004804Y-123037965D01*
X138623851Y-123037965D01*
X139528613Y-122514155D02*
X140195280Y-122514155D01*
X139766708Y-123514155D01*
%TO.C,R6*%
X148414622Y-119381152D02*
X147842202Y-119280137D01*
X148010561Y-119785213D02*
X147303454Y-119078107D01*
X147572828Y-118808732D01*
X147673843Y-118775061D01*
X147741187Y-118775061D01*
X147842202Y-118808732D01*
X147943217Y-118909748D01*
X147976889Y-119010763D01*
X147976889Y-119078107D01*
X147943217Y-119179122D01*
X147673843Y-119448496D01*
X148313607Y-118067954D02*
X148178920Y-118202641D01*
X148145248Y-118303656D01*
X148145248Y-118371000D01*
X148178920Y-118539358D01*
X148279935Y-118707717D01*
X148549309Y-118977091D01*
X148650324Y-119010763D01*
X148717668Y-119010763D01*
X148818683Y-118977091D01*
X148953370Y-118842404D01*
X148987042Y-118741389D01*
X148987042Y-118674045D01*
X148953370Y-118573030D01*
X148785011Y-118404671D01*
X148683996Y-118371000D01*
X148616653Y-118371000D01*
X148515637Y-118404671D01*
X148380950Y-118539358D01*
X148347279Y-118640374D01*
X148347279Y-118707717D01*
X148380950Y-118808732D01*
D11*
%TO.C,SW1*%
X137548028Y-115365439D02*
X137567647Y-115424299D01*
X137567647Y-115463538D01*
X137548028Y-115522397D01*
X137528408Y-115542017D01*
X137469549Y-115561637D01*
X137430309Y-115561637D01*
X137371450Y-115542017D01*
X137292971Y-115463538D01*
X137273351Y-115404679D01*
X137273351Y-115365439D01*
X137292971Y-115306580D01*
X137312591Y-115286960D01*
X137371450Y-115267341D01*
X137410689Y-115267341D01*
X137469549Y-115286960D01*
X137548028Y-115365439D01*
X137606887Y-115385059D01*
X137646126Y-115385059D01*
X137704986Y-115365439D01*
X137783465Y-115286960D01*
X137803084Y-115228101D01*
X137803084Y-115188862D01*
X137783465Y-115130002D01*
X137704986Y-115051523D01*
X137646126Y-115031904D01*
X137606887Y-115031904D01*
X137548028Y-115051523D01*
X137469549Y-115130002D01*
X137449929Y-115188862D01*
X137449929Y-115228101D01*
X137469549Y-115286960D01*
X134264922Y-111611459D02*
X134500359Y-111846896D01*
X134382640Y-111729178D02*
X133970625Y-112141193D01*
X134068724Y-112121573D01*
X134147203Y-112121573D01*
X134206062Y-112141193D01*
D12*
%TO.C,R1*%
X125868947Y-111220775D02*
X125868947Y-115060775D01*
X127708947Y-111220775D02*
X127708947Y-115060775D01*
%TO.C,R4*%
X137441947Y-99520775D02*
X141281947Y-99520775D01*
X137441947Y-101360775D02*
X141281947Y-101360775D01*
%TO.C,C1*%
X129785654Y-116464517D02*
X130139207Y-116818070D01*
X130139207Y-116464517D02*
X129785654Y-116818070D01*
X128282188Y-118546082D02*
G75*
G03*
X131670639Y-121934534I2443760J-944692D01*
G01*
X133169706Y-120435467D02*
G75*
G03*
X129781254Y-117047016I-2443760J944691D01*
G01*
%TO.C,R2*%
X128027947Y-112393775D02*
X128027947Y-108553775D01*
X129867947Y-112393775D02*
X129867947Y-108553775D01*
%TO.C,R3*%
X129987764Y-103941882D02*
X132703054Y-101226592D01*
X131288840Y-105242958D02*
X134004130Y-102527668D01*
%TO.C,R5*%
X148728947Y-108426775D02*
X148728947Y-112266775D01*
X150568947Y-108426775D02*
X150568947Y-112266775D01*
%TO.C,R7*%
X141281947Y-120221775D02*
X137441947Y-120221775D01*
X141281947Y-122061775D02*
X137441947Y-122061775D01*
%TO.C,R6*%
X147562054Y-115577592D02*
X144846764Y-118292882D01*
X148863130Y-116878668D02*
X146147840Y-119593958D01*
D13*
%TO.C,SW1*%
X134324946Y-116535801D02*
X134999526Y-115861222D01*
X133426921Y-115637776D02*
X134324946Y-116535801D01*
X134999526Y-115861222D02*
X134101500Y-114963196D01*
X134101500Y-114963196D02*
X133426921Y-115637776D01*
X147487947Y-110473775D02*
G75*
G03*
X147487947Y-110473775I-7999000J0D01*
G01*
%TD*%
D14*
%TO.C,J6*%
X125201447Y-104917525D03*
%TD*%
%TO.C,*%
X125995197Y-102536275D03*
%TD*%
%TO.C,*%
X124407697Y-107298775D03*
%TD*%
M02*
