%TF.GenerationSoftware,KiCad,Pcbnew,(6.0.4)*%
%TF.CreationDate,2023-07-07T19:50:39-04:00*%
%TF.ProjectId,Rotary Switch Board,526f7461-7279-4205-9377-697463682042,rev?*%
%TF.SameCoordinates,Original*%
%TF.FileFunction,Copper,L2,Bot*%
%TF.FilePolarity,Positive*%
%FSLAX46Y46*%
G04 Gerber Fmt 4.6, Leading zero omitted, Abs format (unit mm)*
G04 Created by KiCad (PCBNEW (6.0.4)) date 2023-07-07 19:50:39*
%MOMM*%
%LPD*%
G01*
G04 APERTURE LIST*
G04 Aperture macros list*
%AMHorizOval*
0 Thick line with rounded ends*
0 $1 width*
0 $2 $3 position (X,Y) of the first rounded end (center of the circle)*
0 $4 $5 position (X,Y) of the second rounded end (center of the circle)*
0 Add line between two ends*
20,1,$1,$2,$3,$4,$5,0*
0 Add two circle primitives to create the rounded ends*
1,1,$1,$2,$3*
1,1,$1,$4,$5*%
%AMRotRect*
0 Rectangle, with rotation*
0 The origin of the aperture is its center*
0 $1 length*
0 $2 width*
0 $3 Rotation angle, in degrees counterclockwise*
0 Add horizontal line*
21,1,$1,$2,0,0,$3*%
G04 Aperture macros list end*
%TA.AperFunction,ComponentPad*%
%ADD10C,1.752600*%
%TD*%
%TA.AperFunction,ComponentPad*%
%ADD11C,1.400000*%
%TD*%
%TA.AperFunction,ComponentPad*%
%ADD12O,1.400000X1.400000*%
%TD*%
%TA.AperFunction,ComponentPad*%
%ADD13RotRect,1.600000X1.600000X315.000000*%
%TD*%
%TA.AperFunction,ComponentPad*%
%ADD14C,1.600000*%
%TD*%
%TA.AperFunction,ComponentPad*%
%ADD15HorizOval,1.400000X0.000000X0.000000X0.000000X0.000000X0*%
%TD*%
%TA.AperFunction,ComponentPad*%
%ADD16HorizOval,1.400000X0.000000X0.000000X0.000000X0.000000X0*%
%TD*%
%TA.AperFunction,ComponentPad*%
%ADD17C,1.800000*%
%TD*%
%TA.AperFunction,Conductor*%
%ADD18C,0.381000*%
%TD*%
%TA.AperFunction,Conductor*%
%ADD19C,0.254000*%
%TD*%
G04 APERTURE END LIST*
D10*
%TO.P,J6,1*%
%TO.N,GND*%
X125201447Y-104917525D03*
%TD*%
D11*
%TO.P,R1,1*%
%TO.N,Signal*%
X126788947Y-110600775D03*
D12*
%TO.P,R1,2*%
%TO.N,Net-(C1-Pad1)*%
X126788947Y-115680775D03*
%TD*%
D11*
%TO.P,R4,1*%
%TO.N,Net-(R3-Pad2)*%
X136821947Y-100440775D03*
D12*
%TO.P,R4,2*%
%TO.N,Net-(R4-Pad2)*%
X141901947Y-100440775D03*
%TD*%
D10*
%TO.P,,1*%
%TO.N,Signal*%
X125995197Y-102536275D03*
%TD*%
D13*
%TO.P,C1,1*%
%TO.N,Net-(C1-Pad1)*%
X128958180Y-117723008D03*
D14*
%TO.P,C1,2*%
%TO.N,GND*%
X132493714Y-121258542D03*
%TD*%
D10*
%TO.P,,1*%
%TO.N,+5V*%
X124407697Y-107298775D03*
%TD*%
D11*
%TO.P,R2,1*%
%TO.N,GND*%
X128947947Y-113013775D03*
D12*
%TO.P,R2,2*%
%TO.N,Net-(R2-Pad2)*%
X128947947Y-107933775D03*
%TD*%
D11*
%TO.P,R3,1*%
%TO.N,Net-(R2-Pad2)*%
X130199896Y-105030826D03*
D15*
%TO.P,R3,2*%
%TO.N,Net-(R3-Pad2)*%
X133791998Y-101438724D03*
%TD*%
D11*
%TO.P,R5,1*%
%TO.N,Net-(R4-Pad2)*%
X149648947Y-107806775D03*
D12*
%TO.P,R5,2*%
%TO.N,Net-(R5-Pad2)*%
X149648947Y-112886775D03*
%TD*%
D11*
%TO.P,R7,1*%
%TO.N,Net-(R6-Pad2)*%
X141901947Y-121141775D03*
D12*
%TO.P,R7,2*%
%TO.N,+5V*%
X136821947Y-121141775D03*
%TD*%
D11*
%TO.P,R6,1*%
%TO.N,Net-(R5-Pad2)*%
X148650998Y-115789724D03*
D16*
%TO.P,R6,2*%
%TO.N,Net-(R6-Pad2)*%
X145058896Y-119381826D03*
%TD*%
D17*
%TO.P,SW1,1*%
%TO.N,GND*%
X132097560Y-113534840D03*
%TO.P,SW1,2*%
%TO.N,Net-(R2-Pad2)*%
X132098267Y-107412003D03*
%TO.P,SW1,3*%
%TO.N,Net-(R3-Pad2)*%
X136427175Y-103083095D03*
%TO.P,SW1,4*%
%TO.N,unconnected-(SW1-Pad4)*%
X142550012Y-103082388D03*
%TO.P,SW1,5*%
%TO.N,Net-(R4-Pad2)*%
X146880334Y-107412710D03*
%TO.P,SW1,6*%
%TO.N,Net-(R5-Pad2)*%
X146880334Y-113534840D03*
%TO.P,SW1,7*%
%TO.N,Net-(R6-Pad2)*%
X142550012Y-117865162D03*
%TO.P,SW1,8*%
%TO.N,unconnected-(SW1-Pad8)*%
X136427882Y-117865162D03*
%TO.P,SW1,9*%
%TO.N,Net-(C1-Pad1)*%
X137615114Y-108599942D03*
%TD*%
D18*
%TO.N,GND*%
X126180669Y-113013775D02*
X125201447Y-112034553D01*
X132493714Y-121258542D02*
X130810772Y-121258542D01*
X125201447Y-115649217D02*
X125201447Y-112034553D01*
X126077747Y-108009975D02*
X126077747Y-105793825D01*
X128947947Y-113013775D02*
X126180669Y-113013775D01*
X130810772Y-121258542D02*
X125201447Y-115649217D01*
X125201447Y-108886275D02*
X126077747Y-108009975D01*
X125201447Y-112034553D02*
X125201447Y-108886275D01*
X126077747Y-105793825D02*
X125201447Y-104917525D01*
D19*
%TO.N,Signal*%
X126788947Y-110600775D02*
X126788947Y-103330025D01*
X126788947Y-103330025D02*
X125995197Y-102536275D01*
D18*
%TO.N,+5V*%
X124407697Y-115676447D02*
X124407697Y-107298775D01*
X135515169Y-122448553D02*
X131179803Y-122448553D01*
X136821947Y-121141775D02*
X135515169Y-122448553D01*
X131179803Y-122448553D02*
X124407697Y-115676447D01*
%TD*%
M02*
